<svg width="263" height="292" viewBox="0 0 263 292" fill="none" xmlns="http://www.w3.org/2000/svg">
<path d="M59.1859 13.9333C59.0526 14.3833 58.8526 14.8 58.5859 15.1667C57.9193 16.0333 56.8359 16.4833 55.7193 16.4667C54.6026 16.4833 53.5193 16.0333 52.8859 15.1667C52.2026 14.3 52.0026 13.1333 52.0026 12C52.0026 10.8667 52.2026 9.68333 52.8859 8.83333C53.5193 7.96667 54.6026 7.51667 55.7193 7.51667C56.8359 7.51667 57.9193 7.96667 58.5859 8.83333C58.8859 9.21667 59.0859 9.68333 59.2193 10.1833L61.1526 9.85C60.9359 9.11667 60.6026 8.35 60.0693 7.68333C59.0359 6.4 57.4359 5.75 55.7193 5.75C54.0193 5.75 52.4193 6.38333 51.3859 7.68333C50.4026 8.88333 50.0193 10.3833 50.0026 12C50.0026 13.5667 50.3859 15.0667 51.3859 16.3C52.3859 17.5667 53.9859 18.25 55.7193 18.25C57.3859 18.25 59.0026 17.6167 60.0693 16.3C60.5193 15.7333 60.8359 15.1167 61.0359 14.4667L59.1859 13.9333ZM70.8536 9H68.7536L66.4203 12.7667H64.887V9H62.987V18H64.887V14.25H66.437L68.887 18H71.0036L68.0536 13.4833L70.8536 9ZM73.7078 11.4833C73.7578 11.4 73.8411 11.3 73.9078 11.2167C74.3078 10.7167 74.9245 10.5167 75.6078 10.5167C76.1745 10.5 76.7245 10.6167 77.1411 10.9167C77.5078 11.1667 77.7578 11.55 77.8411 11.9833L76.2245 12.2167C74.8911 12.4167 74.0578 12.4667 73.0745 13C72.2245 13.5 71.6745 14.4 71.6745 15.35C71.6745 16.0667 71.8911 16.5333 72.3078 17.1333C72.7911 17.7667 73.7078 18.2167 74.6078 18.2333C75.3411 18.25 76.1245 18.0833 76.7911 17.7C77.2911 17.4333 77.8745 16.9167 78.1078 16.35V18H79.7578V12.35C79.7578 11.8167 79.6411 11.2 79.3411 10.6333C78.6411 9.33333 77.2911 8.76667 75.6411 8.76667C74.2245 8.76667 73.0078 9.25 72.2078 10.35C72.1245 10.45 72.0578 10.5833 71.9911 10.6667L73.7078 11.4833ZM77.8911 13.5167C77.8911 13.8833 77.8911 14.3333 77.6745 14.85C77.2911 15.9833 75.9911 16.5333 74.9411 16.5167C74.1078 16.5 73.5245 15.9 73.5411 15.2333C73.5745 14.2667 74.8245 14.05 76.0078 13.85C76.9911 13.6667 77.5578 13.5667 77.8911 13.5167ZM88.0245 9V12.35H83.8078V9H81.9245V18H83.8078V14.2167H88.0245V18H89.8911V9H88.0245ZM100.121 9H98.4714L94.1214 14.8667V9H92.2214V18H93.888L98.2214 12V18H100.121V9ZM110.022 10.1833C109.272 9.25 108.089 8.75 106.856 8.75C105.822 8.75 104.839 9.13333 104.122 9.76667V9H102.456V22H104.339V17.4167C105.022 17.9667 105.922 18.25 106.906 18.25C108.122 18.25 109.272 17.7333 110.022 16.8C110.772 15.8667 111.039 14.7 111.039 13.5C111.039 12.2833 110.722 11.0833 110.022 10.1833ZM108.522 15.65C108.089 16.2833 107.356 16.5667 106.639 16.5667C105.889 16.5667 105.239 16.3 104.789 15.7833C104.322 15.2333 104.122 14.3667 104.122 13.5C104.122 12.6167 104.322 11.7667 104.789 11.2C105.206 10.6833 105.856 10.4333 106.572 10.4333C107.389 10.4333 108.072 10.7 108.506 11.3333C108.889 11.8667 109.056 12.6667 109.056 13.5C109.056 14.3333 108.906 15.1167 108.522 15.65ZM118.749 9L116.216 15.8667L113.616 9H111.716L115.349 18.2667C114.949 19.35 114.649 19.9167 114.366 20.1C114.166 20.2333 113.783 20.2667 113.483 20.2333L113.216 20.2V22H113.383C114.116 22 114.749 21.95 115.316 21.5C115.899 21.0833 116.333 20.35 116.666 19.4333L120.616 9H118.749ZM127.106 5.53333C127.106 6.08333 126.656 6.51667 126.106 6.51667C125.572 6.51667 125.122 6.08333 125.122 5.53333H123.656C123.656 6.9 124.756 8 126.106 8C127.472 8 128.572 6.9 128.572 5.53333H127.106ZM129.856 9H128.206L123.856 14.8667V9H121.956V18H123.622L127.956 12V18H129.856V9ZM139.407 9H131.44V10.6667H134.49V18H136.357V10.6667H139.407V9ZM142.504 14.0167H149.337C149.354 13.85 149.37 13.6667 149.37 13.5C149.37 12.3167 149.054 11.15 148.304 10.2333C147.487 9.23333 146.254 8.75 144.937 8.75C143.62 8.75 142.37 9.25 141.554 10.2333C140.804 11.15 140.52 12.2833 140.487 13.5C140.47 14.6667 140.787 15.8167 141.554 16.7667C142.37 17.75 143.62 18.2 144.937 18.25C146.237 18.3 147.52 17.7833 148.37 16.8C148.57 16.5667 148.737 16.3167 148.887 16.05L147.02 15.25C146.954 15.3667 146.904 15.4833 146.804 15.6167C146.37 16.1833 145.687 16.4833 144.937 16.4833C144.187 16.4833 143.487 16.1833 143.054 15.6167C142.72 15.1833 142.57 14.6 142.504 14.0167ZM144.937 10.5167C145.687 10.5 146.37 10.8 146.804 11.3833C147.054 11.7 147.204 12.1 147.287 12.5167H142.57C142.654 12.1 142.804 11.7 143.054 11.3833C143.487 10.8 144.187 10.5 144.937 10.5167ZM165.622 12C165.589 10.4167 165.272 8.93333 164.256 7.68333C163.222 6.4 161.622 5.76667 159.922 5.75C158.206 5.75 156.589 6.38333 155.572 7.68333C154.606 8.88333 154.206 10.4167 154.206 12C154.206 13.5667 154.606 15.1 155.572 16.3C156.589 17.6 158.206 18.25 159.922 18.25C161.089 18.25 162.222 17.95 163.172 17.3167L164.106 18.25L165.272 17.05L164.372 16.15C165.272 14.9667 165.606 13.55 165.622 12ZM159.922 16.4667C158.806 16.4833 157.706 16.0333 157.072 15.1667C156.389 14.3 156.189 13.1333 156.189 12C156.206 10.8667 156.389 9.68333 157.072 8.83333C157.706 7.96667 158.806 7.51667 159.922 7.53333C161.039 7.51667 162.122 7.96667 162.756 8.83333C163.422 9.68333 163.639 10.8667 163.639 12C163.639 12.9833 163.472 13.9667 163.006 14.7833L161.906 13.6833L160.722 14.8667L161.839 15.9833C161.272 16.3167 160.606 16.4833 159.922 16.4667ZM176.006 12.2333C176.522 11.5833 176.856 10.7167 176.839 9.86667C176.822 9 176.506 8.13333 175.956 7.46667C175.506 6.86667 174.872 6.43333 174.156 6.2C173.772 6.06667 173.339 6 172.922 6H167.622V18H169.506V13.7333H172.639L174.706 18H176.839L174.572 13.3667C175.139 13.1 175.639 12.7167 176.006 12.2333ZM169.506 7.76667H172.906C173.439 7.76667 174.022 8.06667 174.372 8.46667C174.722 8.83333 174.906 9.35 174.922 9.86667C174.939 10.35 174.756 10.8 174.472 11.1667C174.089 11.6667 173.456 11.9667 172.906 11.9667H169.506V7.76667ZM178.023 12.5167V14.0167H183.023V12.5167H178.023ZM193.057 9H190.957L188.623 12.7667H187.09V9H185.19V18H187.09V14.25H188.64L191.09 18H193.207L190.257 13.4833L193.057 9ZM197.999 18.25C199.333 18.25 200.549 17.7667 201.366 16.7667C202.133 15.8 202.449 14.75 202.449 13.5C202.449 12.3 202.149 11.1833 201.366 10.2333C200.566 9.23333 199.299 8.75 197.999 8.75C196.683 8.75 195.416 9.26667 194.616 10.2333C193.899 11.1167 193.549 12.2667 193.549 13.5C193.549 14.7 193.849 15.8167 194.616 16.7667C195.433 17.75 196.683 18.25 197.999 18.25ZM199.883 15.6167C199.449 16.1833 198.749 16.4833 197.999 16.4833C197.233 16.4833 196.533 16.1833 196.116 15.6167C195.683 15.05 195.533 14.2667 195.533 13.5C195.533 12.7333 195.683 11.9333 196.116 11.3667C196.533 10.8 197.233 10.5167 197.999 10.5167C198.749 10.5167 199.449 10.8 199.883 11.3667C200.316 11.9333 200.466 12.7333 200.466 13.5C200.466 14.2667 200.316 15.05 199.883 15.6167ZM212.017 9H205.734L205.251 13.1833C204.984 15.4667 204.251 16.2167 203.451 16.2167V19.1333H205.234V18H211.017V19.1333H212.784V16.2167H212.017V9ZM210.234 16.2167H206.084C206.551 15.65 206.817 14.6333 206.967 13.4L207.284 10.6667H210.234V16.2167Z" fill="white"/>
<path d="M39 40L10 40C8.34315 40 7 41.3431 7 43L7 72" stroke="#4789EB" stroke-width="3" stroke-miterlimit="10"/>
<path d="M7 258L7 286C7 288.209 8.79086 290 11 290L39 290" stroke="#4789EB" stroke-width="3" stroke-miterlimit="10"/>
<path d="M225 290H253C255.209 290 257 288.209 257 286V258" stroke="#4789EB" stroke-width="3" stroke-miterlimit="10"/>
<path d="M224 41H254C255.105 41 256 41.8954 256 43V73" stroke="#4789EB" stroke-width="3" stroke-miterlimit="10"/>
</svg>
