<svg width="48" height="48" viewBox="0 0 48 48" fill="none" xmlns="http://www.w3.org/2000/svg">
<rect width="48" height="48" rx="24" fill="#DA0B20" fill-opacity="0.12"/>
<g clip-path="url(#clip0_260_4177)">
<path d="M16.9335 32.3874C17.4535 32.9074 18.2935 32.9074 18.8135 32.3874L24.0001 27.2274L29.1735 32.4007C29.6935 32.9207 30.5335 32.9207 31.0535 32.4007C31.5735 31.8807 31.5735 31.0407 31.0535 30.5207L24.9335 24.4007C24.4135 23.8807 23.5735 23.8807 23.0535 24.4007L16.9335 30.5074C16.4135 31.0274 16.4135 31.8674 16.9335 32.3874Z" fill="#DA0B20"/>
<path d="M16.9335 23.6003C17.4535 24.1203 18.2935 24.1203 18.8135 23.6003L24.0001 18.4403L29.1735 23.6136C29.6935 24.1336 30.5335 24.1336 31.0535 23.6136C31.5735 23.0936 31.5735 22.2536 31.0535 21.7336L24.9335 15.6136C24.4135 15.0936 23.5735 15.0936 23.0535 15.6136L16.9335 21.7203C16.4135 22.2403 16.4135 23.0803 16.9335 23.6003Z" fill="#DA0B20"/>
</g>
<defs>
<clipPath id="clip0_260_4177">
<rect width="32" height="32" fill="white" transform="translate(8 8)"/>
</clipPath>
</defs>
</svg>
