<svg width="48" height="48" viewBox="0 0 48 48" fill="none" xmlns="http://www.w3.org/2000/svg">
<rect width="48" height="48" rx="24" fill="#008736" fill-opacity="0.12"/>
<g clip-path="url(#clip0_70_396)">
<path d="M31.0535 15.6133C30.5335 15.0933 29.6935 15.0933 29.1735 15.6133L24.0001 20.7733L18.8135 15.6C18.2935 15.08 17.4535 15.08 16.9335 15.6C16.4135 16.12 16.4135 16.96 16.9335 17.48L23.0535 23.6C23.5735 24.12 24.4135 24.12 24.9335 23.6L31.0535 17.48C31.5735 16.9733 31.5735 16.1333 31.0535 15.6133Z" fill="#008736"/>
<path d="M31.0533 24.4004C30.5333 23.8804 29.6933 23.8804 29.1733 24.4004L24 29.5604L18.8266 24.3871C18.3066 23.8671 17.4666 23.8671 16.9466 24.3871C16.4266 24.9071 16.4266 25.7471 16.9466 26.2671L23.0666 32.3871C23.5866 32.9071 24.4266 32.9071 24.9466 32.3871L31.0666 26.2671C31.5733 25.7604 31.5733 24.9204 31.0533 24.4004Z" fill="#008736"/>
</g>
<defs>
<clipPath id="clip0_70_396">
<rect width="32" height="32" fill="white" transform="translate(8 8)"/>
</clipPath>
</defs>
</svg>
