<?xml version="1.0" encoding="utf-8"?>
<!-- Generator: Adobe Illustrator 24.0.2, SVG Export Plug-In . SVG Version: 6.00 Build 0)  -->
<svg version="1.1" id="Слой_1" xmlns="http://www.w3.org/2000/svg" xmlns:xlink="http://www.w3.org/1999/xlink" x="0px" y="0px"
	 viewBox="0 0 2000 2000" style="enable-background:new 0 0 2000 2000;" xml:space="preserve">
<style type="text/css">
	.st0{fill:#FFFFFF;}
</style>
<path class="st0" d="M1994.1,587.4c-4.8-106.5-21.7-179.2-46.5-242.8c-25.6-65.8-59.8-121.5-115.4-177.2
	c-55.6-55.7-111.4-89.8-177.1-115.4c-63.7-24.7-136.4-41.7-242.8-46.5c-106.6-4.8-140.7-6.1-412.4-6.1S694.3,0.7,587.6,5.6
	c-106.5,4.8-179.2,21.7-242.8,46.5C279,77.6,223.3,111.9,167.6,167.5C112,223,77.8,278.8,52.3,344.6
	C27.6,408.2,10.7,480.9,5.8,587.4C0.9,694.1-0.2,728.2-0.2,999.8s1.1,305.7,6.1,412.4c4.8,106.5,21.7,179.2,46.5,242.8
	c25.5,65.8,59.7,121.6,115.4,177.2s111.4,89.8,177.2,115.4c63.7,24.7,136.3,41.6,242.8,46.5c106.7,4.8,140.7,6.1,412.4,6.1
	s305.7-1.1,412.4-6.1c106.5-4.8,179.2-21.7,242.8-46.5c65.8-25.6,121.5-59.8,177.2-115.4c55.7-55.6,89.8-111.4,115.4-177.2
	c24.7-63.6,41.7-136.3,46.5-242.8c4.8-106.7,6-140.7,6-412.4S1999,694.1,1994.1,587.4z M1239.8,587.7c21-21,55.1-21,76.2,0
	l58.2,58.2c21,21,21,55.1,0,76.2l-363.6,363.6L876.3,951.2L1239.8,587.7z M679.6,1416.6c-2.6,2.6-5.5,4.9-8.4,6.9
	c-17.9,11.8-41.3,11.8-59.3,0c-3-2-5.8-4.3-8.4-6.9l-58.2-58.2L261,1074.1c-21-21-21-55.1,0-76.2l58.2-58.2c21-21,55.1-21,76.2,0
	L641.5,1186l0,0l134.4,134.4L679.6,1416.6z M1745.4,724.1L1109,1360.5c0,0,0,0,0,0l-58.2,58.2c-21,21-55.1,21-76.2,0l-58.2-58.2
	l-284.3-284.3c-21-21-21-55.1,0-76.2l58.2-58.2c21-21,55.1-21,76.2,0L915.6,1091l44.8,44.8l52.3,52.3L1611,589.8
	c21-21,55.1-21,76.2,0l58.2,58.2C1766.4,669,1766.4,703.1,1745.4,724.1z"/>
</svg>
