<?xml version="1.0" encoding="UTF-8"?>
<!DOCTYPE svg PUBLIC "-//W3C//DTD SVG 1.1//EN" "http://www.w3.org/Graphics/SVG/1.1/DTD/svg11.dtd">
<!-- Creator: CorelDRAW X8 -->
<svg xmlns="http://www.w3.org/2000/svg" xml:space="preserve" width="3543px" height="3543px" version="1.1" shape-rendering="geometricPrecision" text-rendering="geometricPrecision" image-rendering="optimizeQuality" fill-rule="evenodd" clip-rule="evenodd"
viewBox="0 0 3543 3543"
 xmlns:xlink="http://www.w3.org/1999/xlink">
 <g id="Слой_x0020_1">
  <metadata id="CorelCorpID_0Corel-Layer"/>
  <path fill="#5E0FEC" d="M1771 0c-481,0 -541,2 -730,11 -188,8 -317,38 -430,82 -116,45 -215,106 -314,204 -98,99 -159,198 -204,314 -44,113 -74,242 -82,430 -9,189 -11,249 -11,731 0,481 2,541 11,730 8,188 38,317 82,430 45,116 106,215 204,314 99,98 198,159 314,204 113,44 242,74 430,82 189,9 249,11 730,11 482,0 542,-2 731,-11 188,-8 317,-38 430,-82 116,-45 215,-106 314,-204 98,-99 159,-198 204,-314 44,-113 74,-242 82,-430 9,-189 11,-249 11,-730 0,-482 -2,-542 -11,-731 -8,-188 -38,-317 -82,-430 -45,-116 -106,-215 -204,-314 -99,-98 -198,-159 -314,-204 -113,-44 -242,-74 -430,-82 -189,-9 -249,-11 -731,-11z"/>
  <g id="_1752308662576">
   <path fill="white" d="M718 1663l594 593c36,37 36,97 0,134l-99 99c-37,37 -97,37 -134,0l-593 -593c-37,-37 -37,-97 0,-134l98 -99c37,-37 97,-37 134,0z"/>
   <path fill="white" d="M2415 1287l-1202 1202c-37,37 -97,37 -134,0l-99 -99c-37,-37 -37,-97 0,-134l1202 -1202c37,-37 98,-37 135,0l98 99c37,37 37,97 0,134z"/>
   <g>
    <path fill="white" d="M1361 1663l593 593c37,37 37,97 0,134l-99 99c-37,37 -97,37 -134,0l-593 -593c-37,-37 -37,-97 0,-134l98 -99c37,-37 98,-37 135,0z"/>
    <path id="1" fill="#5E0FEC" d="M1449 1575l593 593 0 0c43,43 65,99 65,155 0,57 -22,113 -65,156l0 0 -98 99 0 0c-43,42 -100,64 -156,64 -56,0 -113,-22 -155,-64l0 0 -594 -594c-42,-42 -64,-99 -64,-155l0 0c0,-57 21,-113 64,-156l99 -98c43,-43 99,-65 155,-65l0 1c57,0 113,21 156,64zm-88 88l593 593c37,37 37,97 0,134l-99 99c-37,37 -97,37 -134,0l-593 -593c-37,-37 -37,-97 0,-134l98 -99c37,-37 98,-37 135,0z"/>
   </g>
   <path fill="white" d="M3057 1287l-1202 1202c-37,37 -97,37 -134,0l-99 -99c-37,-37 -37,-97 0,-134l1203 -1202c37,-37 97,-37 134,0l98 99c37,37 37,97 0,134z"/>
  </g>
 </g>
</svg>
