<svg width="92" height="33" viewBox="0 0 92 33" fill="none" xmlns="http://www.w3.org/2000/svg">
<g>
<path fill-rule="evenodd" clip-rule="evenodd" d="M6.25065 0L4.68701 4.28311H26.3556L27.9192 0H6.25065ZM3.90471 6.42369L2.34107 10.7058H24.0096L25.5732 6.42369H3.90471ZM1.56364 12.8474L0 17.1295H21.6685L23.2312 12.8474H1.56364Z" fill="#009FDF"/>
<mask id="mask0_72_19916" style="mask-type:alpha" maskUnits="userSpaceOnUse" x="32" y="6" width="60" height="27">
<path d="M32.5098 32.7426H91.8249V6.50586H32.5098V32.7426Z" fill="white"/>
</mask>
<g mask="url(#mask0_72_19916)">
<path fill-rule="evenodd" clip-rule="evenodd" d="M46.066 18.7615V18.8519C47.0563 19.2154 48.0022 19.8509 48.4978 20.2591C50.029 21.5303 50.7049 23.2096 50.7049 25.3884C50.7049 28.9754 48.8131 31.5624 45.7054 32.3797C44.7594 32.6518 43.7692 32.7432 41.9217 32.7432H32.5098V6.50586H40.8418C42.5533 6.50586 43.7239 6.59623 44.7594 6.86834C47.7775 7.68565 49.759 9.77411 49.759 13.087C49.759 14.8577 49.1284 16.3563 48.0928 17.3543C47.6425 17.8082 47.0119 18.3534 46.066 18.7615ZM37.734 21.5303V28.4302H41.3374C42.4173 28.4302 43.4085 28.3398 44.1298 27.6586C44.8501 26.9773 45.1654 26.1153 45.1654 24.9802C45.1654 24.1182 44.9398 23.3009 44.4895 22.711C43.7239 21.7577 42.7779 21.5303 41.1571 21.5303H37.734ZM37.6887 16.9909H40.6161C41.5167 16.9909 41.967 16.9909 42.4173 16.8548C43.6342 16.4913 44.3998 15.4029 44.3998 13.9044C44.3998 12.1347 43.5889 11.3621 42.4173 10.9996C41.9217 10.8635 41.427 10.8178 40.4358 10.8178H37.6887V16.9909ZM58.5413 32.7432V10.9082H51.0203V6.50586H71.9182L70.4323 10.9082H63.7655V32.7432H58.5413ZM73.5391 32.7432V6.50586H90.474L88.9881 10.9082H78.719V16.7188H82.9076C86.2854 16.7188 88.0422 17.5361 89.2581 18.5798C90.204 19.3971 91.8249 21.2125 91.8249 24.7995C91.8249 28.3398 90.1587 30.2913 88.7625 31.2903C87.1416 32.4244 85.4301 32.7432 81.9617 32.7432H73.5391ZM78.719 28.3398H82.6376C84.1235 28.3398 85.0241 27.9764 85.6547 27.1591C85.9701 26.7509 86.4203 26.024 86.4203 24.6625C86.4203 23.3009 85.9701 22.3476 85.0695 21.6663C84.5295 21.2582 83.8082 21.0317 82.5923 21.0317H78.719V28.3398Z" fill="#0A2973"/>
</g>
</g>
<defs>
</defs>
</svg>
