<?xml version="1.0" encoding="UTF-8"?>
<svg xmlns="http://www.w3.org/2000/svg" xml:space="preserve" width="3543px" height="3543px" version="1.1" style="shape-rendering:geometricPrecision; text-rendering:geometricPrecision; image-rendering:optimizeQuality; fill-rule:evenodd; clip-rule:evenodd"
viewBox="0 0 3543 3543"
 xmlns:xlink="http://www.w3.org/1999/xlink">
 <g fill="#C7C7C7">
  <g>
   <path class="fil0" d="M1771 319c474,0 530,2 716,11 173,7 267,36 329,61 83,32 142,70 204,132 62,62 100,121 132,204 25,62 54,156 61,329 9,186 11,242 11,716 0,473 -2,529 -11,715 -7,173 -36,267 -61,329 -32,83 -70,142 -132,204 -62,62 -121,100 -204,132 -62,25 -156,54 -329,61 -186,9 -242,11 -716,11 -473,0 -529,-2 -715,-11 -173,-7 -267,-36 -329,-61 -83,-32 -142,-70 -204,-132 -62,-62 -100,-121 -132,-204 -25,-62 -54,-156 -61,-329 -9,-186 -11,-242 -11,-715 0,-474 2,-530 11,-716 7,-173 36,-267 61,-329 32,-83 70,-142 132,-204 62,-62 121,-100 204,-132 62,-25 156,-54 329,-61 186,-9 242,-11 715,-11l0 0zm0 -319c-481,0 -541,2 -730,11 -188,8 -317,38 -430,82 -116,45 -215,106 -314,204 -98,99 -159,198 -204,314 -44,113 -74,242 -82,430 -9,189 -11,249 -11,731 0,481 2,541 11,730 8,188 38,317 82,430 45,116 106,215 204,314 99,98 198,159 314,204 113,44 242,74 430,82 189,9 249,11 730,11 482,0 542,-2 731,-11 188,-8 317,-38 430,-82 116,-45 215,-106 314,-204 98,-99 159,-198 204,-314 44,-113 74,-242 82,-430 9,-189 11,-249 11,-730 0,-482 -2,-542 -11,-731 -8,-188 -38,-317 -82,-430 -45,-116 -106,-215 -204,-314 -99,-98 -198,-159 -314,-204 -113,-44 -242,-74 -430,-82 -189,-9 -249,-11 -731,-11z"/>
  </g>
  <path class="fil0" d="M718 1663l594 593c36,37 36,97 0,134l-99 99c-37,37 -97,37 -134,0l-593 -593c-37,-37 -37,-97 0,-134l98 -99c37,-37 97,-37 134,0z"/>
  <path class="fil0" d="M2415 1287l-627 627 -233 -233 627 -627c37,-37 98,-37 135,0l98 99c37,37 37,97 0,134zm-715 715l-233 233 -233 -233 233 -233 233 233zm-322 321l-165 166c-37,37 -97,37 -134,0l-99 -99c-37,-37 -37,-97 0,-134l166 -165 232 232z"/>
  <path class="fil0" d="M1361 1663l593 593c37,37 37,97 0,134l-99 99c-37,37 -97,37 -134,0l-593 -593c-37,-37 -37,-97 0,-134l98 -99c37,-37 98,-37 135,0z"/>
  <path class="fil0" d="M3057 1287l-1202 1202c-37,37 -97,37 -134,0l-99 -99c-37,-37 -37,-97 0,-134l1203 -1202c37,-37 97,-37 134,0l98 99c37,37 37,97 0,134z"/>
 </g>
</svg>
