<?xml version="1.0" standalone="no"?>
<!DOCTYPE svg PUBLIC "-//W3C//DTD SVG 20010904//EN"
 "http://www.w3.org/TR/2001/REC-SVG-20010904/DTD/svg10.dtd">
<svg version="1.0" xmlns="http://www.w3.org/2000/svg"
 width="700.000000pt" height="700.000000pt" viewBox="0 0 700.000000 700.000000"
 preserveAspectRatio="xMidYMid meet">
<metadata>
Created by potrace 1.11, written by Peter Selinger 2001-2013
</metadata>
<g transform="translate(0.000000,700.000000) scale(0.100000,-0.100000)"
fill="#000000" stroke="none">
<path d="M2380 6994 c-579 -22 -796 -50 -1067 -140 -308 -102 -532 -241 -749
-466 -197 -204 -322 -414 -418 -701 -71 -214 -106 -421 -128 -779 -18 -284
-18 -2517 0 -2810 29 -484 89 -749 234 -1043 266 -539 768 -890 1423 -994 290
-47 715 -61 1825 -61 1508 0 1802 21 2213 157 141 46 357 155 477 240 116 83
325 290 403 400 195 275 311 586 361 973 35 270 41 520 41 1735 0 1509 -10
1696 -106 2062 -92 353 -261 642 -515 883 -350 333 -764 487 -1424 531 -150
10 -2352 21 -2570 13z m2158 -2009 c40 -17 284 -252 308 -297 18 -34 18 -119
0 -161 -8 -18 -290 -307 -663 -680 l-648 -647 -235 235 -235 235 655 654 c677
677 672 672 753 675 15 1 44 -6 65 -14z m1309 -10 c43 -18 244 -211 284 -274
36 -55 40 -132 10 -189 -24 -46 -2474 -2494 -2518 -2516 -37 -18 -109 -21
-150 -5 -37 13 -1269 1243 -1294 1291 -21 41 -25 111 -9 155 16 40 257 281
305 304 49 23 94 24 143 4 25 -11 177 -155 482 -460 l445 -445 1055 1056 c727
727 1067 1062 1095 1075 49 23 103 24 152 4z m-4512 -1231 c17 -8 334 -318
705 -689 l675 -675 -180 -181 c-99 -99 -192 -187 -207 -195 -35 -18 -131 -18
-166 0 -40 21 -1267 1255 -1286 1293 -21 42 -20 109 3 158 11 24 71 91 147
166 100 97 138 128 169 137 45 12 96 7 140 -14z"/>
</g>
</svg>
